<?xml version="1.0" encoding="utf-8"?>
<svg xmlns="http://www.w3.org/2000/svg" version="1.1" width="256px" height="256px" viewBox="0 0 256 256">
  <g fill="none" fill-rule="nonzero" stroke="none" stroke-width="1" stroke-linecap="butt" stroke-linejoin="miter" stroke-miterlimit="10" font-family="none" font-weight="none" font-size="none"
    transform="matrix(3.909155, 0, 0, 3.680173, -468.46701, -399.976929)" style="transform-origin: 595.613px 528.048px;">
    <path
      d="M607.14068,501.81196c0.95464,0.3041 2.32983,0.85796 2.77749,1.83926c0.18296,0.40093 0.20142,0.7875 0.04702,1.19971c-0.58477,1.56108 -2.93555,2.59995 -4.34941,3.27861c0.21636,-0.36475 0.55811,-0.84155 0.6668,-1.24805c0.08042,-0.30132 0.04761,-0.5666 -0.10532,-0.83745c-0.48384,-0.85679 -1.44639,-1.31587 -2.36704,-1.52915c-4.14551,-0.95977 -9.8729,0.30937 -13.41475,2.59204c-1.10757,0.71367 -1.84629,1.65645 -2.12153,2.94771c-0.03457,0.16274 -0.0665,0.27642 -0.15498,0.42144c-0.1106,-0.10459 -0.21885,-0.21196 -0.31216,-0.33296c-0.36782,-0.47651 -0.50171,-1.30752 -0.42656,-1.89155c0.20479,-1.59214 1.72046,-2.69604 2.89365,-3.6145l-0.44912,0.13652c-2.27388,0.69492 -5.65093,1.7124 -6.82236,3.9936c-0.2978,0.58008 -0.38848,1.27573 -0.17109,1.89902c0.33062,0.94819 1.25229,1.56548 2.11699,1.98062c8.5147,4.08809 24.28828,0.76011 32.94243,-2.24473c3.68643,-1.19897 7.10684,-3.01758 10.48901,-4.88115c-1.47568,1.72368 -3.12114,3.44194 -4.98882,4.74638c-6.24521,4.36128 -16.62114,6.99961 -24.173,7.62261c-6.19438,0.51108 -17.0124,0.4869 -21.81255,-3.66915c-0.78135,-0.67661 -1.43892,-1.5558 -1.50674,-2.62045c-0.0769,-1.2063 0.54492,-2.29849 1.31514,-3.17842c4.45708,-5.09253 14.51675,-6.98818 20.93892,-7.40728c2.73457,-0.31348 6.3454,-0.04452 8.98798,0.79732z"
      id="Path-1-2" style="fill: rgb(255, 255, 255);" />
    <path
      d="M617.00771,518.59379c-1.58628,1.59565 -3.87261,2.28604 -5.94639,3.02271c-7.43657,2.70996 -15.28843,4.10347 -23.20342,4.11797c5.41611,1.82593 9.47227,1.61675 15.02388,1.09834c-0.99888,2.59556 -1.30854,5.1731 -1.35923,7.93667c-3.68716,1.63169 -7.38311,2.4473 -11.41948,2.50399c4.06289,1.76968 7.81304,1.47114 11.90537,-0.09185c0.66973,1.87661 1.60884,3.33956 2.90405,4.84498c-0.95508,0.75645 -1.93506,1.46602 -2.93174,2.1665c-0.58901,-0.94512 -1.29844,-1.73437 -2.06543,-2.5355c0.38408,-0.21489 0.7667,-0.41456 1.09614,-0.71031c0.08188,-0.46201 -0.08921,-0.57875 -0.33193,-0.96796c-0.85562,-0.36885 -2.61943,0.10605 -3.58008,0.1897c-1.93491,0.16875 -3.96738,-0.08394 -5.85015,-0.53101c-3.90542,-0.92754 -6.87187,-2.92251 -8.9937,-6.34863c4.18315,2.00435 9.71909,1.73394 14.05767,0.44268c-2.2938,-0.07808 -4.5687,-0.20508 -6.77959,-0.88184c-4.50967,-1.38032 -7.45869,-5.51133 -9.57114,-9.48296c2.93423,0.31143 6.02183,0.15908 8.96353,-0.01611c11.13618,-0.66299 21.95112,-3.31685 31.6689,-8.9001c-0.09595,0.66826 -2.96089,3.51256 -3.58726,4.14273z"
      id="Path-1-3" style="fill: rgb(255, 255, 255);" />
    <path
      d="M625.12119,494.47295c1.39761,0.88667 3.04351,2.28574 3.39126,3.96958c0.19541,0.94658 -0.08218,1.84761 -0.60835,2.63716c-3.3498,5.02764 -14.62046,7.85625 -20.32222,9.06284c0.7582,-0.37236 1.51377,-0.75029 2.26641,-1.13364c2.14541,-1.09922 5.34258,-2.79639 6.09858,-5.27095c0.21812,-0.71382 0.18208,-1.43276 -0.18296,-2.09019c-0.89868,-1.61792 -3.47432,-2.49785 -5.17163,-2.96104c-9.90674,-2.70337 -23.58311,0.18281 -32.36704,5.20488c-1.43013,0.80054 -2.87739,1.80557 -4.05059,2.95547c-1.82739,1.79077 -2.35137,3.48003 -2.37217,5.9606c-0.8272,-1.33521 -1.26841,-2.74819 -0.99346,-4.32173c0.48325,-2.76577 2.75728,-4.85786 4.93857,-6.41235c9.04468,-6.44604 25.03755,-9.17812 35.90273,-7.31382c2.78057,0.4771 7.48037,1.5186 9.19409,4.01045c0.81987,1.19209 0.55342,2.59131 0.30176,3.91831c1.48799,-1.32627 3.09067,-2.86846 3.28154,-4.97417c0.16392,-1.80923 -0.78779,-3.16025 -1.90181,-4.4666c0.88184,0.17461 1.83768,0.74443 2.59529,1.2252z"
      id="Path-1-4" style="fill: rgb(255, 255, 255);" />
    <path
      d="M566.64668,507.41265c-0.11089,2.18789 0.28608,3.86323 1.70742,5.60054c4.61938,5.64653 15.23921,6.7352 22.08457,7.43275c-1.30928,0.13784 -2.62207,0.23834 -3.93706,0.30133c-5.46211,0.37222 -17.61255,-0.18736 -21.67397,-3.75748c-1.00371,-0.88213 -1.66143,-2.02147 -1.73232,-3.3725c-0.14517,-2.76577 1.83911,-5.46094 3.58887,-7.42148c0.09902,0.32402 -0.01993,0.87011 -0.03751,1.21684z"
      id="Path-1-6" style="fill: rgb(255, 255, 255);" />
    <path
      d="M611.39136,546.24888c-0.01157,0.65552 -0.35493,1.46045 -0.56602,2.08462c-1.6875,4.99043 -5.11099,9.56367 -8.83359,13.2356c1.96128,-3.74517 4.01353,-7.03784 5.16899,-11.17192c-0.93149,0.34761 -1.93652,0.57935 -2.89424,0.85151c-0.14985,0.03047 -0.49849,0.09844 -0.58784,0.24609c-0.26382,0.43608 -0.37441,2.46226 -0.48911,3.14341c-0.39023,2.31636 -1.41519,6.30601 -2.85601,8.17148c1.00679,-4.15942 1.34678,-8.50049 0.26865,-12.67896c4.00752,-0.7623 7.28906,-1.88848 10.66655,-4.20132c0.12363,0.13213 0.12584,0.13272 0.12262,0.31949z"
      id="Path-1-7" style="fill: rgb(255, 255, 255);" />
    <path
      d="M608.65488,538.29785c0.825,1.52842 1.97827,2.70249 3.22368,3.89312c-2.20342,2.11494 -4.89448,3.26234 -7.6856,4.37123c-0.34687,0.12305 -0.68306,0.18795 -1.04399,0.24815l-0.03853,-0.13784c2.05679,-1.36509 3.89839,-2.91255 5.70469,-4.58774c-1.9437,-1.88804 -2.96865,-3.74985 -3.81943,-6.31069c0.76274,-0.40986 1.46499,-0.95289 2.17295,-1.45035c0.29502,0.20522 1.1291,3.3123 1.48623,3.97412z"
      id="Path-1-8" style="fill: rgb(255, 255, 255);" />
    <path
      d="M592.29726,542.2648c1.38472,0.21152 2.7624,0.24535 4.15972,0.26571c0.92227,0.62769 1.78286,1.44404 2.57021,2.23081c0.58975,0.58916 1.92715,1.91559 1.92539,2.76197l-2.14131,0.39932c-2.46064,-3.25269 -5.8002,-4.38252 -9.29048,-6.14575c0.91772,0.07397 1.86095,0.34805 2.77647,0.48794z"
      id="Path-1-9" style="fill: rgb(255, 255, 255);" />
    <path
      d="M610.98794,524.38623c0.06709,0.02212 0.1314,0.09814 0.18442,0.14502c-1.56196,1.84072 -2.58252,3.64658 -3.5439,5.85483c-0.87261,0.64072 -1.78535,1.1978 -2.7123,1.75562l-0.11704,-0.07603c-0.27539,-1.30796 1.59419,-4.99819 2.27373,-6.16289c1.31895,-0.46875 2.62456,-0.97441 3.91509,-1.51655z"
      id="Path-1-10" style="fill: rgb(255, 255, 255);" />
    <path d="M573.05566,522.6057c1.2416,0.32622 2.57285,0.43375 3.84536,0.60455c1.10332,2.65005 3.17446,4.83662 5.0647,6.94585c-3.23394,-0.7998 -7.24951,-4.78551 -8.91006,-7.5504z" id="Path-1-11"
      style="fill: rgb(255, 255, 255);" />
  </g>
</svg>