<?xml version="1.0" encoding="UTF-8" standalone="no"?>
<!-- Created with Inkscape (http://www.inkscape.org/) -->

<svg
   width="448"
   height="400"
   viewBox="0 0 118.53332 105.83334"
   version="1.1"
   id="svg1"
   inkscape:version="1.4.2 (ebf0e940, 2025-05-08)"
   sodipodi:docname="logo_single.svg"
   xmlns:inkscape="http://www.inkscape.org/namespaces/inkscape"
   xmlns:sodipodi="http://sodipodi.sourceforge.net/DTD/sodipodi-0.dtd"
   xmlns:xlink="http://www.w3.org/1999/xlink"
   xmlns="http://www.w3.org/2000/svg"
   xmlns:svg="http://www.w3.org/2000/svg">
  <sodipodi:namedview
     id="namedview1"
     pagecolor="#ffffff"
     bordercolor="#000000"
     borderopacity="0.25"
     inkscape:showpageshadow="2"
     inkscape:pageopacity="0.0"
     inkscape:pagecheckerboard="true"
     inkscape:deskcolor="#d1d1d1"
     inkscape:document-units="mm"
     showguides="true"
     inkscape:zoom="0.91125982"
     inkscape:cx="224.96328"
     inkscape:cy="122.90677"
     inkscape:window-width="1512"
     inkscape:window-height="835"
     inkscape:window-x="0"
     inkscape:window-y="34"
     inkscape:window-maximized="0"
     inkscape:current-layer="layer1">
    <sodipodi:guide
       position="13.923691,93.26226"
       orientation="1,0"
       id="guide1"
       inkscape:locked="false" />
    <sodipodi:guide
       position="135.30261,-6.8220594"
       orientation="1,0"
       id="guide2"
       inkscape:locked="false" />
  </sodipodi:namedview>
  <defs
     id="defs1">
    <linearGradient
       inkscape:collect="always"
       xlink:href="#swatch23"
       id="linearGradient31"
       x1="91.209999"
       y1="94.627495"
       x2="137.08682"
       y2="94.627495"
       gradientUnits="userSpaceOnUse" />
    <linearGradient
       id="swatch23"
       inkscape:swatch="solid">
      <stop
         style="stop-color:#f26722;stop-opacity:1;"
         offset="0"
         id="stop23" />
    </linearGradient>
    <linearGradient
       inkscape:collect="always"
       xlink:href="#swatch11"
       id="linearGradient14"
       x1="50.959999"
       y1="101.69607"
       x2="114.17029"
       y2="101.69607"
       gradientUnits="userSpaceOnUse" />
    <linearGradient
       id="swatch11"
       inkscape:swatch="solid"
       inkscape:pinned="false">
      <stop
         style="stop-color:#ffffff;stop-opacity:1;"
         offset="0"
         id="stop11" />
    </linearGradient>
    <linearGradient
       inkscape:collect="always"
       xlink:href="#swatch23"
       id="linearGradient30"
       x1="20.620001"
       y1="95.988411"
       x2="103.54501"
       y2="95.988411"
       gradientUnits="userSpaceOnUse" />
    <linearGradient
       inkscape:collect="always"
       xlink:href="#swatch11"
       id="linearGradient15"
       x1="18.167856"
       y1="64.412338"
       x2="91.870003"
       y2="64.412338"
       gradientUnits="userSpaceOnUse" />
    <linearGradient
       inkscape:collect="always"
       xlink:href="#swatch23"
       id="linearGradient29"
       x1="37.78318"
       y1="43.922504"
       x2="83.660004"
       y2="43.922504"
       gradientUnits="userSpaceOnUse" />
    <linearGradient
       inkscape:collect="always"
       xlink:href="#swatch23"
       id="linearGradient28"
       x1="71.324989"
       y1="42.561588"
       x2="154.25"
       y2="42.561588"
       gradientUnits="userSpaceOnUse" />
    <linearGradient
       inkscape:collect="always"
       xlink:href="#swatch11"
       id="linearGradient12"
       x1="83"
       y1="74.144852"
       x2="156.71214"
       y2="74.144852"
       gradientUnits="userSpaceOnUse" />
    <linearGradient
       inkscape:collect="always"
       xlink:href="#swatch11"
       id="linearGradient13"
       x1="60.699707"
       y1="36.853928"
       x2="123.91"
       y2="36.853928"
       gradientUnits="userSpaceOnUse" />
    <linearGradient
       inkscape:collect="always"
       xlink:href="#swatch23"
       id="linearGradient27"
       x1="29.08"
       y1="7.8099999"
       x2="61.630001"
       y2="7.8099999"
       gradientUnits="userSpaceOnUse" />
    <linearGradient
       inkscape:collect="always"
       xlink:href="#swatch11"
       id="linearGradient11"
       x1="0"
       y1="38.16"
       x2="32.549999"
       y2="38.16"
       gradientUnits="userSpaceOnUse" />
  </defs>
  <g
     inkscape:label="Layer 1"
     inkscape:groupmode="layer"
     id="layer1">
    <g
       id="Logo"
       transform="matrix(0.75960048,0,0,0.75960048,-0.68248917,0.50930139)">
      <g
         id="Fans">
        <path
           id="Fan_Orange"
           data-name="Fan Orange"
           class="cls-2"
           d="m 113.24,136.09 c 0,0 20.32,-82.37 -22.03,-81.48 0,0 32.5,-14.18 45.24,46.3 3.34,15.87 -6.79,31.49 -22.61,35.04 -0.2,0.04 -0.4,0.09 -0.6,0.13 z"
           style="fill:url(#linearGradient31)" />
        <path
           id="Fan_Black"
           data-name="Fan Black"
           class="cls-1"
           d="m 102.87,64.84 c 0,0 21.41,5.54 5.29,72.48 0,0 -37.04,7.24 -57.2,-13.38 0,0 38.61,-3.42 51.15,-24.24 0,0 -5.22,18.26 -20.97,23.34 0,0 16.33,-0.35 23,-4.04 0,0 12.76,-43.03 -1.28,-54.16 z"
           style="fill:url(#linearGradient14)" />
        <path
           id="Fan_Orange-2"
           data-name="Fan Orange"
           class="cls-2"
           d="m 20.62,95.08 c 0,0 82.37,20.32 81.48,-22.03 0,0 14.18,32.5 -46.3,45.24 -15.87,3.34 -31.49,-6.79 -35.04,-22.61 -0.04,-0.2 -0.09,-0.4 -0.13,-0.6 z"
           style="fill:url(#linearGradient30)" />
        <path
           id="Fan_Black-2"
           data-name="Fan Black"
           class="cls-1"
           d="m 91.87,84.74 c -0.25,0.86 -6.94,21.04 -72.47,5.27 0,0 -7.24,-37.04 13.38,-57.2 0,0 3.42,38.61 24.24,51.15 0,0 -18.26,-5.22 -23.34,-20.96 0,0 0,0 0,0 0,0.24 0.38,16.38 4.04,23 0,0 42.98,12.75 54.14,-1.26 0,0 0.01,0 0.01,0 z"
           style="fill:url(#linearGradient15)" />
        <path
           id="Fan_Orange-3"
           data-name="Fan Orange"
           class="cls-2"
           d="m 61.63,2.46 c 0,0 -20.32,82.37 22.03,81.48 0,0 0,0 0,0 0,0 -32.5,14.18 -45.24,-46.3 C 35.08,21.77 45.21,6.15 61.03,2.6 c 0.2,-0.04 0.4,-0.09 0.6,-0.13 z"
           style="fill:url(#linearGradient29)" />
        <path
           id="Fan_Orange-4"
           data-name="Fan Orange"
           class="cls-2"
           d="m 154.25,43.47 c 0,0 -82.37,-20.32 -81.48,22.03 0,0 -14.18,-32.5 46.3,-45.24 15.87,-3.34 31.49,6.79 35.04,22.61 0.04,0.2 0.09,0.4 0.13,0.6 z"
           style="fill:url(#linearGradient28)" />
        <path
           id="Fan_Black-3"
           data-name="Fan Black"
           class="cls-1"
           d="m 83,53.84 c 0,0 5.54,-21.41 72.48,-5.29 0,0 7.24,37.04 -13.38,57.2 0,0 -3.42,-38.61 -24.24,-51.15 0,0 18.26,5.22 23.34,20.97 0,0 -0.35,-16.33 -4.04,-23 0,0 -43.03,-12.76 -54.16,1.28 z"
           style="fill:url(#linearGradient12)" />
        <path
           id="Fan_Black-4"
           data-name="Fan Black"
           class="cls-1"
           d="m 72,73.71 c 0,0 -21.41,-5.54 -5.29,-72.48 0,0 37.04,-7.24 57.2,13.38 0,0 -38.61,3.42 -51.15,24.24 0,0 5.22,-18.26 20.97,-23.34 0,0 -16.33,0.35 -23,4.04 0,0 -12.76,43.03 1.28,54.16 z"
           style="fill:url(#linearGradient13)" />
      </g>
      <g
         id="Penguins">
        <polygon
           class="cls-2"
           points="61.63,2.46 59.27,13.16 29.08,2.46 "
           id="polygon1"
           style="fill:url(#linearGradient27)" />
        <polygon
           class="cls-1"
           points="32.55,32.81 30.19,43.51 0,32.81 "
           id="polygon2"
           style="fill:url(#linearGradient11)" />
      </g>
    </g>
  </g>
</svg>
