<svg width="186" height="45" viewBox="0 0 186 45" fill="none" xmlns="http://www.w3.org/2000/svg">
<path d="M185.17 12.6016V44.6504H175.323V20.2139C175.323 13.3695 170.592 8.69989 163.495 8.50781H162.855L162.197 8.53906C155.467 8.99376 151.026 13.5831 151.026 20.2139V44.6504H141.18V34.4775C141.18 33.6419 140.17 33.2192 139.564 33.7676L128.901 44.7148H109.464L97.1875 32.1123V5.54004C96.9917 4.87904 96.1194 4.61031 95.5898 5.15137L92.2461 8.56934H90.4102C83.3129 8.76124 78.5812 13.4309 78.5811 20.2754V44.7119H68.7344V28.1465L68.7305 28.0391C68.712 27.7942 68.6257 27.5896 68.4648 27.4424C68.2951 27.2576 68.015 27.1365 67.7197 27.1396L65.6016 27.1348H31.8789C31.8855 27.1672 33.9242 37.1348 45.1504 37.1348C51.3331 37.1346 56.3917 32.9636 57.0684 29.3271H66.5518V33.8096L54.9551 44.7441H34.7227L22.25 32.1172V13.5391L25.8301 9.93652C26.1149 9.40219 25.8157 8.71871 25.2217 8.56934H21.6758C14.5786 8.76124 9.84679 13.4309 9.84668 20.2754V44.7119H0V0.0615234H9.86426V2.80273C9.86427 3.65926 10.9038 4.08386 11.5029 3.47168L14.8389 0.0615234H30.6396V2.80273C30.6397 3.60099 31.5416 4.02273 32.1494 3.58105L33.4609 2.26172L35.6143 0.0615234H37.8086V0.0644531H54.71L65.6016 12.457V12.4346L67.1377 14.1543C67.6675 14.6956 68.5393 14.4264 68.7344 13.7646V0.0615234H78.5986V2.80273C78.5986 3.65926 79.6382 4.08386 80.2373 3.47168L83.5732 0.0615234H106.543V0.0644531H107.034V24.501L107.048 25.1357C107.332 31.6326 111.988 36.0211 118.863 36.207H119.503C126.378 36.021 131.033 31.6325 131.317 25.1357L131.331 24.501V0.0644531H141.178V10.5723L141.18 10.5732C141.404 11.1965 142.315 11.4184 142.831 10.8916L143.16 10.5547H143.174L153.456 0H172.894L185.17 12.6016ZM44.6426 7.48145C36.5896 7.48167 31.2693 14.3893 31.0947 19.2246H58.3477C58.6437 15.1261 53.0177 7.48208 44.6436 7.48145H44.6426Z" fill="white" style="fill:white;fill-opacity:1;"/>
</svg>
