<?xml version="1.0" encoding="UTF-8"?>
<svg id="Layer_2" data-name="Layer 2" xmlns="http://www.w3.org/2000/svg" viewBox="0 0 390.92 141">
  <defs>
    <style>
      .cls-1 {
        fill: #fff;
      }

      .cls-2 {
        fill: #f26722;
      }
    </style>
  </defs>
  <g id="Layer_1-2" data-name="Layer 1">
    <g id="Text_Logo_Light" data-name="Text Logo Light">
      <g id="Logo">
        <g id="Fans">
          <path id="Fan_Orange" data-name="Fan Orange" class="cls-2" d="M113.24,136.09s20.32-82.37-22.03-81.48c0,0,32.5-14.18,45.24,46.3,3.34,15.87-6.79,31.49-22.61,35.04-.2.04-.4.09-.6.13Z"/>
          <path id="Fan_Black" data-name="Fan Black" class="cls-1" d="M102.87,64.84s21.41,5.54,5.29,72.48c0,0-37.04,7.24-57.2-13.38,0,0,38.61-3.42,51.15-24.24,0,0-5.22,18.26-20.97,23.34,0,0,16.33-.35,23-4.04,0,0,12.76-43.03-1.28-54.16Z"/>
          <path id="Fan_Orange-2" data-name="Fan Orange" class="cls-2" d="M20.62,95.08s82.37,20.32,81.48-22.03c0,0,14.18,32.5-46.3,45.24-15.87,3.34-31.49-6.79-35.04-22.61-.04-.2-.09-.4-.13-.6Z"/>
          <path id="Fan_Black-2" data-name="Fan Black" class="cls-1" d="M91.87,84.74c-.25.86-6.94,21.04-72.47,5.27,0,0-7.24-37.04,13.38-57.2,0,0,3.42,38.61,24.24,51.15,0,0-18.26-5.22-23.34-20.96,0,0,0,0,0,0,0,.24.38,16.38,4.04,23,0,0,42.98,12.75,54.14-1.26,0,0,.01,0,.01,0Z"/>
          <path id="Fan_Orange-3" data-name="Fan Orange" class="cls-2" d="M61.63,2.46s-20.32,82.37,22.03,81.48c0,0,0,0,0,0,0,0-32.5,14.18-45.24-46.3-3.34-15.87,6.79-31.49,22.61-35.04.2-.04.4-.09.6-.13Z"/>
          <path id="Fan_Orange-4" data-name="Fan Orange" class="cls-2" d="M154.25,43.47s-82.37-20.32-81.48,22.03c0,0-14.18-32.5,46.3-45.24,15.87-3.34,31.49,6.79,35.04,22.61.04.2.09.4.13.6Z"/>
          <path id="Fan_Black-3" data-name="Fan Black" class="cls-1" d="M83,53.84s5.54-21.41,72.48-5.29c0,0,7.24,37.04-13.38,57.2,0,0-3.42-38.61-24.24-51.15,0,0,18.26,5.22,23.34,20.97,0,0-.35-16.33-4.04-23,0,0-43.03-12.76-54.16,1.28Z"/>
          <path id="Fan_Black-4" data-name="Fan Black" class="cls-1" d="M72,73.71s-21.41-5.54-5.29-72.48c0,0,37.04-7.24,57.2,13.38,0,0-38.61,3.42-51.15,24.24,0,0,5.22-18.26,20.97-23.34,0,0-16.33.35-23,4.04,0,0-12.76,43.03,1.28,54.16Z"/>
        </g>
        <g id="Penguins">
          <polygon class="cls-2" points="59.27 13.16 29.08 2.46 61.63 2.46 59.27 13.16"/>
          <polygon class="cls-1" points="30.19 43.51 0 32.81 32.55 32.81 30.19 43.51"/>
        </g>
      </g>
      <g id="Text">
        <g id="IRL_Logo" data-name="IRL Logo">
          <path class="cls-2" d="M294.98,69.63h0c-3.06,0-5.11-2.48-4.57-5.55l4.83-27.38c.54-3.06,3.46-5.55,6.53-5.55h0c3.06,0,5.11,2.48,4.57,5.55l-4.83,27.38c-.54,3.06-3.46,5.55-6.53,5.55Z"/>
          <path class="cls-2" d="M301.96,30.03h0c-3.06,0-5.11-2.48-4.57-5.55h0c.54-3.06,3.46-5.55,6.53-5.55h0c3.06,0,5.11,2.48,4.57,5.55h0c-.54,3.06-3.46,5.55-6.53,5.55Z"/>
          <path class="cls-2" d="M315.42,18.94h15.94c4.5,0,14.53,0,12.15,13.55-2.13,12.08-13.92,13.95-13.92,13.95l9.6,16.89c.09.16.13.34.23.51.9,1.57-.19,3.74-2.51,5.08-2.59,1.5-5.14.71-6.43-1.33-.68-1.08-8.27-15.11-8.27-15.11,0,0-2.89-4.8-6.08-4.8h-4.29c-.29,0-.57-.03-.83-.1-.96-.24-2.57-1.71-2.17-3.95.52-2.94,2.74-3.86,4.43-3.86l12.85-.05c1.74,0,6.19-.08,7.27-6.26,1.21-6.85-2.46-6.84-4.88-6.84h-13.4c-2.39,0-3.28-2.72-2.78-4.55s2.03-3.14,3.09-3.14"/>
          <path class="cls-2" d="M370.65,64.74h0c-.44,2.5-2.83,4.53-5.33,4.53h-17.79c-2.5,0-4.17-2.03-3.73-4.53l7.28-41.27c.44-2.5,2.83-4.53,5.33-4.53h1.33c2.5,0,4.17,2.03,3.73,4.53l-6.48,36.74h11.92c2.5,0,4.17,2.03,3.73,4.53Z"/>
        </g>
        <g id="Text_Black" data-name="Text Black">
          <g>
            <path class="cls-1" d="M192.32,125.74l.6-50.76h14.18l-2.59,40.82,13.03-40.82h20.38l-1.31,40.9,11.89-40.9h14.04l-17.3,50.76h-20.95l1.84-41.47-12.86,41.47h-20.95Z"/>
            <path class="cls-1" d="M258.42,125.74l8.95-50.76h13.61l-8.95,50.76h-13.61Z"/>
            <path class="cls-1" d="M279.51,125.74l8.95-50.76h22.32l3.67,40.46,7.13-40.46h12.96l-8.95,50.76h-22.39l-3.63-40.25-7.1,40.25h-12.96Z"/>
            <path class="cls-1" d="M333.08,125.74l8.95-50.76h18.5c5.47,0,10.01,1.01,13.62,3.02,3.6,2.02,6.15,4.92,7.64,8.71,1.49,3.79,1.77,8.35.83,13.68s-2.82,9.88-5.65,13.64c-2.83,3.77-6.41,6.66-10.75,8.68-4.34,2.02-9.25,3.02-14.72,3.02h-18.43ZM347.23,122.64l-6.41-8.57h11.81c4.37,0,7.82-1.19,10.35-3.56,2.53-2.38,4.18-5.75,4.95-10.12.77-4.37.31-7.75-1.38-10.15-1.69-2.4-4.72-3.6-9.08-3.6h-11.81l9.43-8.57-7.86,44.57Z"/>
          </g>
          <g>
            <path class="cls-1" d="M172.08,69.69l.6-50.76h14.18l-2.59,40.82,13.03-40.82h20.38l-1.31,40.89,11.89-40.89h14.04l-17.3,50.76h-20.95l1.84-41.47-12.86,41.47h-20.95Z"/>
            <path class="cls-1" d="M238.18,69.69l8.95-50.76h13.61l-8.95,50.76h-13.61ZM250.2,48.89l2.17-12.31h27.07l-2.17,12.31h-27.07ZM268.34,69.69l8.95-50.76h13.61l-8.95,50.76h-13.61Z"/>
          </g>
          <polygon id="Penguin" class="cls-1" points="204.86 86.67 171.86 74.98 204.86 74.98 204.86 86.67"/>
        </g>
      </g>
    </g>
  </g>
</svg>