<svg xmlns="http://www.w3.org/2000/svg" xmlns:xlink="http://www.w3.org/1999/xlink" version="1.1" viewBox="0 0 156.97821658536586 140.21883656509695" data-name="Layer 2" id="Layer_2" style="max-height: 500px" width="156.97821658536586" height="140.21883656509695">
  
  <defs id="defs1">
    <linearGradient id="swatch23">
      <stop id="stop23" offset="0" style="stop-color:#f26722;stop-opacity:1;"/>
    </linearGradient>
    <linearGradient id="swatch11">
      <stop id="stop11" offset="0" style="stop-color:#040069;stop-opacity:1;"/>
    </linearGradient>
    <style id="style1">
      .cls-1 {
        fill: #f26722;
      }
    </style>
    <linearGradient gradientUnits="userSpaceOnUse" y2="74.144853" x2="156.71214" y1="74.144853" x1="83" id="linearGradient11" xlink:href="#swatch11"/>
    <linearGradient gradientUnits="userSpaceOnUse" y2="36.853928" x2="123.91" y1="36.853928" x1="60.699706" id="linearGradient12" xlink:href="#swatch11"/>
    <linearGradient gradientUnits="userSpaceOnUse" y2="64.412339" x2="91.87" y1="64.412339" x1="18.167856" id="linearGradient13" xlink:href="#swatch11"/>
    <linearGradient gradientUnits="userSpaceOnUse" y2="101.69607" x2="114.17029" y1="101.69607" x1="50.96" id="linearGradient14" xlink:href="#swatch11"/>
    <linearGradient gradientUnits="userSpaceOnUse" y2="38.16" x2="32.55" y1="38.16" x1="0" id="linearGradient15" xlink:href="#swatch11"/>
    <linearGradient gradientUnits="userSpaceOnUse" y2="80.825" x2="204.86" y1="80.825" x1="171.86" id="linearGradient16" xlink:href="#swatch11"/>
    <linearGradient gradientUnits="userSpaceOnUse" y2="44.32" x2="290.9" y1="44.32" x1="238.18" id="linearGradient17" xlink:href="#swatch11"/>
    <linearGradient gradientUnits="userSpaceOnUse" y2="44.32" x2="242.3" y1="44.32" x1="172.08" id="linearGradient18" xlink:href="#swatch11"/>
    <linearGradient gradientUnits="userSpaceOnUse" y2="100.36" x2="383.16377" y1="100.36" x1="333.07" id="linearGradient19" xlink:href="#swatch11"/>
    <linearGradient gradientUnits="userSpaceOnUse" y2="100.36" x2="334.54" y1="100.36" x1="279.51" id="linearGradient20" xlink:href="#swatch11"/>
    <linearGradient gradientUnits="userSpaceOnUse" y2="100.36" x2="280.98" y1="100.36" x1="258.42" id="linearGradient21" xlink:href="#swatch11"/>
    <linearGradient gradientUnits="userSpaceOnUse" y2="100.36" x2="262.54" y1="100.36" x1="192.32" id="linearGradient22" xlink:href="#swatch11"/>
    <linearGradient gradientUnits="userSpaceOnUse" y2="42.56159" x2="154.25" y1="42.56159" x1="71.324988" id="linearGradient23" xlink:href="#swatch23"/>
    <linearGradient gradientUnits="userSpaceOnUse" y2="43.922506" x2="83.66" y1="43.922506" x1="37.78318" id="linearGradient24" xlink:href="#swatch23"/>
    <linearGradient gradientUnits="userSpaceOnUse" y2="95.98841" x2="103.54501" y1="95.98841" x1="20.62" id="linearGradient25" xlink:href="#swatch23"/>
    <linearGradient gradientUnits="userSpaceOnUse" y2="94.627494" x2="137.08682" y1="94.627494" x1="91.21" id="linearGradient26" xlink:href="#swatch23"/>
    <linearGradient gradientUnits="userSpaceOnUse" y2="7.81" x2="61.63" y1="7.81" x1="29.08" id="linearGradient27" xlink:href="#swatch23"/>
    <linearGradient gradientUnits="userSpaceOnUse" y2="44.105" x2="370.71034" y1="44.105" x1="343.72966" id="linearGradient28" xlink:href="#swatch23"/>
    <linearGradient gradientUnits="userSpaceOnUse" y2="44.314124" x2="343.87006" y1="44.314124" x1="308.77738" id="linearGradient29" xlink:href="#swatch23"/>
    <linearGradient gradientUnits="userSpaceOnUse" y2="24.48" x2="308.57632" y1="24.48" x1="297.30368" id="linearGradient30" xlink:href="#swatch23"/>
    <linearGradient gradientUnits="userSpaceOnUse" y2="50.39" x2="306.42632" y1="50.39" x1="290.32368" id="linearGradient31" xlink:href="#swatch23"/>
  </defs>
  <g data-name="Layer 1" id="Layer_1-2">
    <g data-name="Text Logo" id="Text_Logo">
      <g id="Logo">
        <g id="Fans">
          <path style="fill:url(#linearGradient26)" d="M113.24,136.09s20.32-82.37-22.03-81.48c0,0,32.5-14.18,45.24,46.3,3.34,15.87-6.79,31.49-22.61,35.04-.2.04-.4.09-.6.13Z" class="cls-1" data-name="Fan Orange" id="Fan_Orange"/>
          <path style="fill:url(#linearGradient14)" d="M102.87,64.84s21.41,5.54,5.29,72.48c0,0-37.04,7.24-57.2-13.38,0,0,38.61-3.42,51.15-24.24,0,0-5.22,18.26-20.97,23.34,0,0,16.33-.35,23-4.04,0,0,12.76-43.03-1.28-54.16Z" data-name="Fan Black" id="Fan_Black"/>
          <path style="fill:url(#linearGradient25)" d="M20.62,95.08s82.37,20.32,81.48-22.03c0,0,14.18,32.5-46.3,45.24-15.87,3.34-31.49-6.79-35.04-22.61-.04-.2-.09-.4-.13-.6Z" class="cls-1" data-name="Fan Orange" id="Fan_Orange-2"/>
          <path style="fill:url(#linearGradient13)" d="M91.87,84.74c-.25.86-6.94,21.04-72.47,5.27,0,0-7.24-37.04,13.38-57.2,0,0,3.42,38.61,24.24,51.15,0,0-18.26-5.22-23.34-20.96,0,0,0,0,0,0,0,.24.38,16.38,4.04,23,0,0,42.98,12.75,54.14-1.26,0,0,.01,0,.01,0Z" data-name="Fan Black" id="Fan_Black-2"/>
          <path style="fill:url(#linearGradient24)" d="M61.63,2.46s-20.32,82.37,22.03,81.48c0,0,0,0,0,0,0,0-32.5,14.18-45.24-46.3-3.34-15.87,6.79-31.49,22.61-35.04.2-.04.4-.09.6-.13Z" class="cls-1" data-name="Fan Orange" id="Fan_Orange-3"/>
          <path style="fill:url(#linearGradient23)" d="M154.25,43.47s-82.37-20.32-81.48,22.03c0,0-14.18-32.5,46.3-45.24,15.87-3.34,31.49,6.79,35.04,22.61.04.2.09.4.13.6Z" class="cls-1" data-name="Fan Orange" id="Fan_Orange-4"/>
          <path style="fill:url(#linearGradient11)" d="M83,53.84s5.54-21.41,72.48-5.29c0,0,7.24,37.04-13.38,57.2,0,0-3.42-38.61-24.24-51.15,0,0,18.26,5.22,23.34,20.97,0,0-.35-16.33-4.04-23,0,0-43.03-12.76-54.16,1.28Z" data-name="Fan Black" id="Fan_Black-3"/>
          <path style="fill:url(#linearGradient12)" d="M72,73.71s-21.41-5.54-5.29-72.48c0,0,37.04-7.24,57.2,13.38,0,0-38.61,3.42-51.15,24.24,0,0,5.22-18.26,20.97-23.34,0,0-16.33.35-23,4.04,0,0-12.76,43.03,1.28,54.16Z" data-name="Fan Black" id="Fan_Black-4"/>
        </g>
        <g id="Penguins">
          <polygon style="fill:url(#linearGradient27)" id="polygon1" points="59.27 13.16 29.08 2.46 61.63 2.46 59.27 13.16" class="cls-1"/>
          <polygon style="fill:url(#linearGradient15)" id="polygon2" points="30.19 43.51 0 32.81 32.55 32.81 30.19 43.51"/>
        </g>
      </g>
      <g id="Text">
        <g data-name="IRL Logo" id="IRL_Logo">
          <path style="fill:url(#linearGradient31)" id="path2" d="M294.98,69.63h0c-3.06,0-5.11-2.48-4.57-5.55l4.83-27.38c.54-3.06,3.46-5.55,6.53-5.55h0c3.06,0,5.11,2.48,4.57,5.55l-4.83,27.38c-.54,3.06-3.46,5.55-6.53,5.55Z" class="cls-1"/>
          <path style="fill:url(#linearGradient30)" id="path3" d="M301.96,30.03h0c-3.06,0-5.11-2.48-4.57-5.55h0c.54-3.06,3.46-5.55,6.53-5.55h0c3.06,0,5.11,2.48,4.57,5.55h0c-.54,3.06-3.46,5.55-6.53,5.55Z" class="cls-1"/>
          <path style="fill:url(#linearGradient29)" id="path4" d="M315.42,18.94h15.94c4.5,0,14.53,0,12.15,13.55-2.13,12.08-13.92,13.95-13.92,13.95l9.6,16.89c.09.16.13.34.23.51.9,1.57-.19,3.74-2.51,5.08-2.59,1.5-5.14.71-6.43-1.33-.68-1.08-8.27-15.11-8.27-15.11,0,0-2.89-4.8-6.08-4.8h-4.29c-.29,0-.57-.03-.83-.1-.96-.24-2.57-1.71-2.17-3.95.52-2.94,2.74-3.86,4.43-3.86l12.85-.05c1.74,0,6.19-.08,7.27-6.26,1.21-6.85-2.46-6.84-4.88-6.84h-13.4c-2.39,0-3.28-2.72-2.78-4.55s2.03-3.14,3.09-3.14" class="cls-1"/>
          <path style="fill:url(#linearGradient28)" id="path5" d="M370.65,64.74h0c-.44,2.5-2.83,4.53-5.33,4.53h-17.79c-2.5,0-4.17-2.03-3.73-4.53l7.28-41.27c.44-2.5,2.83-4.53,5.33-4.53h1.33c2.5,0,4.17,2.03,3.73,4.53l-6.48,36.74h11.92c2.5,0,4.17,2.03,3.73,4.53Z" class="cls-1"/>
        </g>
        <g data-name="Text Black" id="Text_Black">
          <g id="g9">
            <path style="fill:url(#linearGradient22)" id="path6" d="M192.32,125.74l.6-50.76h14.18l-2.59,40.82,13.03-40.82h20.38l-1.31,40.9,11.89-40.9h14.04l-17.3,50.76h-20.95l1.84-41.47-12.86,41.47h-20.95Z"/>
            <path style="fill:url(#linearGradient21)" id="path7" d="M258.42,125.74l8.95-50.76h13.61l-8.95,50.76h-13.61Z"/>
            <path style="fill:url(#linearGradient20)" id="path8" d="M279.51,125.74l8.95-50.76h22.32l3.67,40.46,7.13-40.46h12.96l-8.95,50.76h-22.39l-3.63-40.25-7.1,40.25h-12.96Z"/>
            <path style="fill:url(#linearGradient19)" id="path9" d="M333.08,125.74l8.95-50.76h18.5c5.47,0,10.01,1.01,13.62,3.02,3.6,2.02,6.15,4.92,7.64,8.71,1.49,3.79,1.77,8.35.83,13.68s-2.82,9.88-5.65,13.64c-2.83,3.77-6.41,6.66-10.75,8.68-4.34,2.02-9.25,3.02-14.72,3.02h-18.43ZM347.23,122.64l-6.41-8.57h11.81c4.37,0,7.82-1.19,10.35-3.56,2.53-2.38,4.18-5.75,4.95-10.12.77-4.37.31-7.75-1.38-10.15-1.69-2.4-4.72-3.6-9.08-3.6h-11.81l9.43-8.57-7.86,44.57Z"/>
          </g>
          <g id="g11">
            <path style="fill:url(#linearGradient18)" id="path10" d="M172.08,69.7l.6-50.76h14.18l-2.59,40.82,13.03-40.82h20.38l-1.31,40.9,11.89-40.9h14.04l-17.3,50.76h-20.95l1.84-41.47-12.86,41.47h-20.95Z"/>
            <path style="fill:url(#linearGradient17)" id="path11" d="M238.18,69.7l8.95-50.76h13.61l-8.95,50.76h-13.61ZM250.2,48.89l2.17-12.31h27.07l-2.17,12.31h-27.07ZM268.34,69.7l8.95-50.76h13.61l-8.95,50.76h-13.61Z"/>
          </g>
          <polygon style="fill:url(#linearGradient16)" points="204.86 86.67 171.86 74.98 204.86 74.98 204.86 86.67" id="Penguin"/>
        </g>
      </g>
    </g>
  </g>
</svg>